<svg xmlns="http://www.w3.org/2000/svg" width="39.596" height="39.007" viewBox="0 0 39.596 39.007">
  <g id="Group_1" data-name="Group 1" transform="translate(-11.996 -10.996)">
    <path id="Shape_8_copy_4" data-name="Shape 8 copy 4" d="M22.423,40.022l-8.964.059,3.658-3.768,8.964-.059.34,8.825-3.658,3.768Zm15.406,4.806L37.768,36l8.959-.335,3.824,3.6-8.958.336.06,8.831ZM27.974,34.3l-8.964.059L22.667,30.6l8.964-.06.34,8.825-3.658,3.768Zm4.05,5.056-.06-8.831,8.958-.336,3.825,3.6-8.958.336.06,8.83ZM18.842,26.941l8.958-.335-.06-8.832,3.825,3.6.06,8.831-8.958.335Zm12.775-5.564,3.658-3.768.34,8.825,8.964-.059L40.92,30.142l-8.965.059Zm-18.58.1,8.958-.336-.059-8.831,3.824,3.6.06,8.831-8.958.335Zm24.131-5.814,3.658-3.768.339,8.825,8.965-.059-3.658,3.767-8.965.059Z" fill="#f5c506" opacity="0.502"/>
    <path id="Shape_8_copy_3" data-name="Shape 8 copy 3" d="M31.793,43.857,25.357,50V44.79l6.437-6.147,6.438,6.147V50Zm0-7.912-6.437,6.146V36.878l6.437-6.146,6.438,6.146v5.214Zm14.506.9L40.06,30.5l6.24-6.341h5.292L45.353,30.5l6.239,6.341Zm-8.032,0L32.028,30.5l6.24-6.341H43.56L37.321,30.5l6.239,6.341Zm-18.24,0L26.267,30.5l-6.239-6.341H25.32l6.24,6.341-6.24,6.341Zm-8.032,0L18.235,30.5,12,24.159h5.292l6.24,6.341-6.24,6.341Zm13.36-12.72V18.909l6.437,6.146,6.438-6.146v5.213l-6.438,6.147Zm0-7.912V11l6.437,6.146L38.231,11V16.21l-6.438,6.146Z" fill="#f5c506"/>
  </g>
</svg>
